<svg width="450" height="363" viewBox="0 0 450 363" fill="none" xmlns="http://www.w3.org/2000/svg">
<g clip-path="url(#clip0_1753_3074)">
<path d="M40.5124 327.415C41.9383 315.95 49.0439 304.653 59.9783 300.922C55.6661 312.723 55.667 325.669 59.9809 337.469C61.6611 342.014 64.0032 346.894 62.4227 351.475C61.4394 354.325 59.0338 356.506 56.3448 357.869C53.6556 359.233 50.6712 359.882 47.7242 360.519L47.1442 360.999C42.4658 350.435 39.0866 338.88 40.5124 327.415Z" fill="#F0F0F0"/>
<path d="M60.0871 301.138C53.7194 308.273 49.7617 317.232 48.7761 326.745C48.5275 328.789 48.6028 330.859 48.9989 332.88C49.4485 334.835 50.4136 336.635 51.7939 338.092C53.0537 339.476 54.5025 340.746 55.4039 342.412C55.8526 343.272 56.1145 344.217 56.1725 345.185C56.2304 346.153 56.0831 347.122 55.7401 348.029C54.9443 350.312 53.3758 352.172 51.7787 353.938C50.0054 355.899 48.1325 357.908 47.3787 360.507C47.2874 360.822 46.804 360.662 46.8952 360.348C48.2066 355.825 52.5971 353.256 54.6909 349.182C55.6679 347.281 56.078 345.075 55.1621 343.068C54.3611 341.313 52.8682 340.003 51.5805 338.612C50.2131 337.211 49.2097 335.496 48.6578 333.617C48.16 331.624 48.0051 329.56 48.1999 327.514C48.5648 322.901 49.6527 318.374 51.4237 314.099C53.418 309.209 56.2341 304.696 59.7501 300.756C59.9679 300.512 60.3034 300.895 60.0871 301.138Z" fill="white"/>
<path d="M48.9131 323.663C47.3396 323.281 45.9531 322.352 45.0013 321.042C44.0494 319.732 43.5942 318.127 43.7169 316.512C43.7428 316.185 44.2516 316.21 44.2256 316.537C44.1086 318.041 44.5328 319.536 45.4216 320.754C46.3105 321.972 47.6054 322.832 49.0727 323.179C49.3915 323.255 49.23 323.738 48.9131 323.663Z" fill="white"/>
<path d="M51.0624 337.475C53.9043 335.778 56.0022 333.072 56.9378 329.897C57.0303 329.583 57.5137 329.743 57.4214 330.057C56.4416 333.359 54.2526 336.17 51.2914 337.93C51.009 338.097 50.7816 337.641 51.0624 337.475Z" fill="white"/>
<path d="M53.89 309.692C54.468 309.967 55.1052 310.094 55.7443 310.061C56.3835 310.029 57.0045 309.838 57.5518 309.506C57.8319 309.335 58.0591 309.791 57.7808 309.961C57.1745 310.325 56.4883 310.535 55.7822 310.572C55.0762 310.61 54.3717 310.474 53.7303 310.176C53.6675 310.153 53.6158 310.107 53.5857 310.047C53.5557 309.987 53.5494 309.918 53.5684 309.854C53.5898 309.79 53.6357 309.738 53.6959 309.707C53.7561 309.677 53.8258 309.672 53.89 309.692Z" fill="white"/>
<path d="M93.3081 321.399C93.1363 321.511 92.9644 321.622 92.7923 321.738C90.4895 323.253 88.3135 324.951 86.2859 326.818C86.1268 326.96 85.9677 327.106 85.8131 327.252C80.9758 331.801 77.0253 337.209 74.1622 343.201C73.0251 345.586 72.0711 348.054 71.3085 350.584C70.2555 354.078 69.3918 357.95 67.3074 360.808C67.0932 361.109 66.8607 361.396 66.6111 361.668H47.7745C47.7317 361.646 47.6887 361.629 47.6456 361.608L46.8936 361.642C46.9238 361.509 46.958 361.371 46.9882 361.238C47.0054 361.161 47.0268 361.083 47.044 361.006C47.0568 360.954 47.0698 360.903 47.0784 360.855C47.0826 360.838 47.087 360.821 47.0912 360.808C47.0998 360.761 47.1129 360.718 47.1215 360.675C47.3105 359.906 47.5053 359.136 47.7059 358.367C47.7059 358.363 47.7059 358.363 47.7101 358.359C49.1821 352.482 51.3461 346.801 54.1565 341.434C54.2426 341.275 54.3284 341.112 54.423 340.953C55.7245 338.578 57.2179 336.312 58.8884 334.18C59.8068 333.015 60.7836 331.898 61.8151 330.832C64.4855 328.083 67.5716 325.772 70.9604 323.982C77.7164 320.415 85.538 319.048 92.7581 321.227C92.9428 321.283 93.1235 321.339 93.3081 321.399Z" fill="#F0F0F0"/>
<path d="M93.2656 321.638C83.8857 323.501 75.3313 328.272 68.8174 335.274C67.3883 336.756 66.2018 338.455 65.3017 340.307C64.483 342.139 64.17 344.157 64.3951 346.151C64.5676 348.015 64.9599 349.901 64.6764 351.774C64.5171 352.731 64.1573 353.643 63.6207 354.45C63.0841 355.258 62.3828 355.944 61.5628 356.461C59.5532 357.805 57.1807 358.346 54.8422 358.794C52.2458 359.292 49.541 359.769 47.3741 361.39C47.1115 361.587 46.822 361.168 47.0841 360.972C50.8543 358.15 55.9066 358.742 60.031 356.75C61.9556 355.821 63.6117 354.306 64.0884 352.152C64.5053 350.269 64.1025 348.323 63.9115 346.438C63.6634 344.496 63.8946 342.523 64.5849 340.69C65.3879 338.799 66.507 337.057 67.8942 335.541C70.9628 332.078 74.5568 329.118 78.5447 326.771C83.0812 324.068 88.0467 322.16 93.2266 321.13C93.5472 321.067 93.5842 321.575 93.2656 321.638Z" fill="white"/>
<path d="M70.7824 332.896C69.756 331.643 69.2083 330.067 69.2369 328.448C69.2656 326.829 69.8688 325.273 70.9388 324.058C71.1561 323.812 71.5473 324.139 71.3297 324.384C70.3312 325.514 69.7694 326.963 69.7458 328.471C69.7222 329.979 70.2383 331.445 71.201 332.606C71.4098 332.858 70.9901 333.147 70.7824 332.896Z" fill="white"/>
<path d="M64.183 345.218C67.4738 345.574 70.7779 344.677 73.4365 342.705C73.6997 342.51 73.9893 342.928 73.7264 343.124C70.956 345.17 67.5157 346.097 64.092 345.719C63.7657 345.683 63.8585 345.182 64.183 345.218Z" fill="white"/>
<path d="M83.1682 324.738C83.4644 325.305 83.8968 325.79 84.4267 326.149C84.9565 326.508 85.5672 326.73 86.2039 326.794C86.5305 326.826 86.4374 327.327 86.1129 327.295C85.4098 327.221 84.7357 326.975 84.1494 326.58C83.5631 326.185 83.0825 325.652 82.7497 325.028C82.7134 324.972 82.6998 324.904 82.7118 324.838C82.7237 324.772 82.7603 324.714 82.814 324.674C82.8696 324.636 82.938 324.621 83.0043 324.633C83.0707 324.645 83.1296 324.683 83.1682 324.738Z" fill="white"/>
<path d="M177.467 265.115C168.228 244.679 168.568 218.774 182.907 201.529C187.705 225.443 200.806 246.888 219.892 262.072C227.275 267.901 236.092 273.616 238.109 282.803C239.364 288.52 237.585 294.566 234.51 299.546C231.435 304.526 227.149 308.622 222.911 312.659L222.435 314.041C203.996 301.274 186.706 285.552 177.467 265.115Z" fill="#F0F0F0"/>
<path d="M183.306 201.778C180.006 219.848 182.458 239.089 190.479 255.644C192.213 259.223 194.283 262.703 197.056 265.582C199.779 268.367 203.199 270.372 206.96 271.389C210.447 272.407 214.132 273.045 217.312 274.893C220.663 276.841 222.742 280.11 223.552 283.858C224.544 288.445 223.828 293.114 222.969 297.656C222.015 302.699 220.945 307.921 222.327 312.991C222.494 313.605 221.532 313.829 221.364 313.215C218.96 304.396 223.634 295.697 222.981 286.83C222.676 282.692 221.122 278.622 217.575 276.224C214.472 274.128 210.673 273.467 207.133 272.467C203.416 271.416 200.078 269.812 197.237 267.15C194.331 264.427 192.12 261.021 190.302 257.502C186.239 249.491 183.461 240.891 182.07 232.017C180.425 221.898 180.524 211.572 182.362 201.486C182.476 200.862 183.419 201.158 183.306 201.778Z" fill="white"/>
<path d="M187.588 250.401C184.595 251.361 181.358 251.225 178.456 250.018C175.553 248.811 173.175 246.612 171.744 243.813C171.457 243.246 172.325 242.772 172.613 243.34C173.94 245.949 176.156 247.997 178.861 249.116C181.566 250.234 184.581 250.349 187.363 249.439C187.968 249.242 188.189 250.206 187.588 250.401Z" fill="white"/>
<path d="M205.124 271.106C208.115 265.419 208.852 258.814 207.19 252.608C207.024 251.993 207.987 251.769 208.152 252.383C209.87 258.845 209.089 265.717 205.963 271.628C205.665 272.191 204.827 271.666 205.124 271.106Z" fill="white"/>
<path d="M181.696 222.22C182.932 222.09 184.116 221.655 185.142 220.955C186.168 220.254 187.004 219.31 187.574 218.207C187.865 217.64 188.703 218.165 188.414 218.728C187.778 219.944 186.853 220.986 185.721 221.763C184.59 222.539 183.285 223.026 181.921 223.182C181.794 223.208 181.662 223.184 181.551 223.115C181.441 223.047 181.361 222.939 181.327 222.813C181.298 222.686 181.321 222.552 181.39 222.441C181.459 222.33 181.569 222.25 181.696 222.22Z" fill="white"/>
<path d="M258.843 201.73C258.671 202.089 258.5 202.449 258.332 202.815C256.049 207.654 254.164 212.67 252.693 217.814C252.573 218.21 252.458 218.613 252.349 219.011C248.939 231.442 247.866 244.398 249.186 257.221C249.716 262.323 250.633 267.377 251.929 272.34C253.72 279.194 256.208 286.482 255.646 293.326C255.596 294.041 255.501 294.752 255.363 295.455L224.157 314.514C224.065 314.522 223.976 314.537 223.883 314.545L222.672 315.363C222.587 315.112 222.505 314.849 222.42 314.598C222.37 314.453 222.327 314.303 222.278 314.157C222.247 314.059 222.216 313.96 222.182 313.873C222.172 313.84 222.162 313.808 222.156 313.782C222.122 313.695 222.1 313.611 222.071 313.531C221.606 312.065 221.15 310.593 220.704 309.116C220.7 309.109 220.7 309.109 220.702 309.098C217.331 297.832 214.871 286.187 214.257 274.538C214.238 274.187 214.215 273.83 214.211 273.471C213.963 268.218 214.145 262.955 214.755 257.732C215.098 254.873 215.586 252.034 216.216 249.224C217.858 241.969 220.632 235.016 224.435 228.622C232.018 215.877 243.592 205.698 257.758 202.002C258.12 201.908 258.476 201.818 258.843 201.73Z" fill="#F0F0F0"/>
<path d="M259.015 202.168C245.501 214.609 235.874 231.448 232.311 249.496C231.54 253.398 231.098 257.423 231.579 261.39C232.077 265.254 233.6 268.914 235.991 271.99C238.162 274.902 240.721 277.63 242.146 281.02C243.649 284.593 243.341 288.455 241.731 291.936C239.761 296.195 236.379 299.492 232.959 302.601C229.161 306.053 225.162 309.579 223.213 314.458C222.977 315.05 222.074 314.649 222.309 314.058C225.7 305.569 234.669 301.438 239.486 293.964C241.734 290.477 242.944 286.292 241.555 282.242C240.34 278.7 237.704 275.885 235.48 272.955C233.144 269.878 231.445 266.587 230.78 262.751C230.099 258.828 230.384 254.777 231.052 250.873C232.631 242.03 235.59 233.491 239.822 225.568C244.601 216.498 250.897 208.313 258.436 201.367C258.903 200.937 259.479 201.742 259.015 202.168Z" fill="white"/>
<path d="M233.16 243.568C230.192 242.532 227.69 240.475 226.099 237.764C224.508 235.053 223.933 231.865 224.476 228.769C224.588 228.143 225.566 228.287 225.454 228.914C224.943 231.796 225.479 234.766 226.966 237.287C228.452 239.809 230.791 241.716 233.56 242.664C234.161 242.871 233.758 243.774 233.16 243.568Z" fill="white"/>
<path d="M234.695 270.658C240.507 267.918 245.073 263.088 247.482 257.132C247.72 256.541 248.624 256.942 248.386 257.532C245.867 263.726 241.106 268.742 235.051 271.58C234.474 271.85 234.121 270.926 234.695 270.658Z" fill="white"/>
<path d="M245.423 217.52C246.487 218.16 247.694 218.526 248.935 218.584C250.176 218.643 251.412 218.392 252.532 217.855C253.106 217.578 253.458 218.501 252.889 218.777C251.648 219.365 250.283 219.64 248.912 219.578C247.541 219.517 246.205 219.121 245.023 218.424C244.906 218.368 244.815 218.269 244.768 218.148C244.721 218.027 244.722 217.892 244.771 217.772C244.824 217.653 244.923 217.559 245.045 217.512C245.167 217.465 245.303 217.468 245.423 217.52Z" fill="white"/>
<path d="M238.62 305.599C238.789 305.004 238.825 304.379 238.727 303.767C238.628 303.156 238.396 302.574 238.049 302.062C237.701 301.55 237.245 301.121 236.713 300.804C236.181 300.487 235.586 300.291 234.97 300.229L224.634 267.67L219.28 273.37L230.261 304.318C230.226 305.359 230.574 306.378 231.239 307.18C231.904 307.982 232.841 308.513 233.871 308.671C234.901 308.829 235.954 308.604 236.829 308.037C237.704 307.471 238.341 306.604 238.62 305.599Z" fill="#FFB6B6"/>
<path d="M209.326 242.131C209.326 242.131 212.608 237.824 217.888 241.071C223.169 244.319 228.579 262.866 229.541 265.829C230.502 268.792 230.317 285.592 230.317 285.592L222.194 288.227L209.326 242.131Z" fill="#3F3D56"/>
<path d="M286.121 362.156H166.052L170.263 348.512C196.363 339.063 181.703 318.755 206.53 306.341C267.256 275.978 290.765 185.372 281.873 149.556L321.668 147.873C321.668 147.873 376.625 303.942 286.121 362.156Z" fill="#3F3D56"/>
<path d="M318.858 288.779L353.958 262.131L371.067 279.239L313.886 318.369L318.858 288.779Z" fill="#3F3D56"/>
<path d="M223.916 275.91L223.374 281.962C223.374 281.962 223.14 286.986 222.397 288.097C221.66 289.202 201.552 289.342 201.552 289.342C201.552 289.342 200.224 282.179 199.079 275.91H223.916Z" fill="#FFB6B6"/>
<path d="M155.403 350.243L151.199 349.394L152.402 332.414L158.607 333.667L155.403 350.243Z" fill="#FFB6B6"/>
<path d="M170.141 352.73H165.856L163.818 335.834H170.142L170.141 352.73Z" fill="#FFB6B6"/>
<path d="M163.282 345.779L171.702 346.561L176.295 312.522C191.434 315.125 205.717 315.959 218.07 312.81C220.099 312.274 221.834 310.962 222.903 309.157C223.972 307.352 224.287 305.199 223.781 303.163C223.733 302.963 223.677 302.766 223.614 302.57C222.136 298.059 216.139 293.727 213.089 288.766L196.197 295.697L195.432 298.827L173.795 296.028C172.75 295.903 171.69 295.986 170.677 296.272C169.664 296.559 168.718 297.043 167.893 297.697C167.068 298.351 166.38 299.161 165.87 300.082C165.36 301.003 165.037 302.016 164.92 303.062C164.891 303.297 164.872 303.533 164.863 303.77L163.282 345.779Z" fill="#2F2E41"/>
<path d="M150.481 338.61L158.901 339.392L174.168 308.168C189.307 310.772 203.59 311.606 215.943 308.457C217.971 307.921 219.707 306.609 220.776 304.804C221.845 302.999 222.16 300.846 221.654 298.81C221.606 298.61 221.55 298.412 221.487 298.217C220.009 293.706 226.353 292.419 223.304 287.457L201.031 287.795L193.304 294.474L171.668 291.675C170.623 291.55 169.563 291.633 168.55 291.919C167.537 292.206 166.591 292.69 165.766 293.344C164.941 293.998 164.253 294.808 163.743 295.729C163.233 296.65 162.91 297.663 162.793 298.709C162.764 298.944 162.745 299.18 162.736 299.417L150.481 338.61Z" fill="#2F2E41"/>
<path d="M226.331 247.826L225.946 285.68C225.946 285.68 223.14 285.699 222.399 286.802C221.662 287.909 199.608 279.644 199.608 279.644C199.608 279.644 199.251 276.204 198.446 271.262C198.315 270.447 198.173 269.593 198.017 268.71C197.978 268.5 197.949 268.295 197.924 268.085C197.105 262.074 199.861 256.902 199.861 256.902L208.083 247.221L209.4 241.186C209.476 240.842 209.656 240.531 209.917 240.295C210.177 240.059 210.505 239.91 210.854 239.868L219.149 238.893C220.125 239.571 219.974 242.254 221.164 242.293C223.008 242.293 226.331 247.826 226.331 247.826Z" fill="#3F3D56"/>
<path opacity="0.2" d="M219.422 256.857L198.446 267.845C198.314 267.031 198.173 266.177 198.017 265.294C197.978 265.084 197.948 264.879 197.924 264.669L219.422 256.857Z" fill="black"/>
<path d="M199.385 281.663C200.548 281.663 201.491 280.531 201.491 279.136C201.491 277.741 200.548 276.609 199.385 276.609C198.222 276.609 197.28 277.741 197.28 279.136C197.28 280.531 198.222 281.663 199.385 281.663Z" fill="#3F3D56"/>
<path d="M212.166 237.357C217.872 237.357 222.498 232.732 222.498 227.025C222.498 221.319 217.872 216.693 212.166 216.693C206.46 216.693 201.834 221.319 201.834 227.025C201.834 232.732 206.46 237.357 212.166 237.357Z" fill="#FFB6B6"/>
<path d="M154.052 356.181L151.1 354.915L151.768 351.902L149.223 354.111L141.393 350.754C141.017 350.593 140.703 350.316 140.496 349.964C140.289 349.612 140.2 349.203 140.242 348.797C140.284 348.391 140.455 348.009 140.729 347.706C141.004 347.404 141.368 347.197 141.768 347.116L149.872 345.478L151.08 342.66L157.489 345.872L154.052 356.181Z" fill="#2F2E41"/>
<path d="M172.162 361.574H168.95L168.377 358.542L166.908 361.574H158.388C157.98 361.574 157.582 361.444 157.253 361.202C156.924 360.96 156.681 360.619 156.56 360.229C156.438 359.839 156.445 359.421 156.578 359.035C156.711 358.649 156.964 358.315 157.3 358.083L164.104 353.384V350.318L171.26 350.745L172.162 361.574Z" fill="#2F2E41"/>
<path d="M238.615 222.534C237.002 220.653 236.235 218.158 234.946 216.022C233.657 213.886 231.413 211.975 229.043 212.472C227.409 212.815 226.146 214.256 225.507 215.864C224.868 217.471 224.748 219.244 224.636 220.98C224.676 217.412 222.325 213.952 219.086 212.813C217.44 212.28 215.667 212.284 214.023 212.822C212.379 213.361 210.948 214.408 209.936 215.812C209.048 214.989 207.889 214.52 206.678 214.495C205.468 214.469 204.29 214.889 203.368 215.674C202.474 216.54 201.9 217.684 201.739 218.919C201.579 220.154 201.841 221.406 202.484 222.473C203.156 223.482 204.173 224.212 205.346 224.524C206.518 224.837 207.763 224.711 208.849 224.17L209.601 224.862C209.406 225.601 209.478 226.386 209.803 227.078C210.128 227.77 210.686 228.327 211.379 228.649C212.498 229.101 214.078 229.026 214.497 230.2C214.789 231.021 214.242 231.897 213.661 232.527C213.079 233.158 212.388 233.809 212.318 234.682C212.213 235.998 213.573 236.921 214.81 237.199C216.326 237.502 217.899 237.346 219.326 236.75C220.753 236.154 221.969 235.147 222.82 233.855C222.854 233.805 222.89 233.754 222.928 233.703C223.893 232.47 224.596 231.053 224.994 229.539C225.392 228.024 225.478 226.445 225.245 224.897C225.148 224.289 225.246 223.836 225.665 223.692C227.478 223.069 232.557 224.376 234.094 225.557C235.631 226.739 236.862 228.302 238.342 229.559C239.823 230.816 241.71 231.786 243.59 231.444C244.346 231.263 245.059 230.932 245.686 230.47C246.312 230.009 246.84 229.427 247.238 228.758C248.05 227.394 248.657 225.917 249.039 224.375C247.35 225.297 245.398 225.616 243.504 225.281C241.61 224.947 239.886 223.978 238.615 222.534Z" fill="#2F2E41"/>
<path d="M90.0605 353.098L94.4782 354.98L103.842 338.837L97.3218 336.059L90.0605 353.098Z" fill="#FFB6B6"/>
<path d="M126.566 357.278L131.368 357.277L133.653 338.756H126.565L126.566 357.278Z" fill="#FFB6B6"/>
<path d="M126.397 362.288L141.164 362.287V362.1C141.164 360.576 140.558 359.114 139.48 358.036C138.402 356.959 136.94 356.353 135.416 356.353L132.719 354.307L127.686 356.353L126.397 356.353L126.397 362.288Z" fill="#2F2E41"/>
<path d="M87.3745 356.305L100.959 362.094L101.032 361.922C101.63 360.52 101.646 358.938 101.077 357.524C100.508 356.109 99.4004 354.979 97.9982 354.382L96.3189 351.441L90.8868 351.351L89.701 350.846L87.3745 356.305Z" fill="#2F2E41"/>
<path d="M131.277 247.659L138.575 292.097L136.588 298.719L139.195 303.409L135.367 344.597L136.921 348.017L132.58 350.694H123.748L123.279 313.407L121.097 307.932V304.915L116.656 282.177L115.838 308.186L114.546 313.669L115.631 317.573L114.213 320.308L102.061 346.403H92.1567L92.9227 340.501C91.1482 339.603 95.5869 336.977 96.0135 335.035L94.5551 331.753L96.0135 325.555L97.3506 313.444L95.9404 287.879L96.604 253.453L108.19 244.594L131.277 247.659Z" fill="#2F2E41"/>
<path d="M113.504 189.137C119.032 189.137 123.513 184.656 123.513 179.128C123.513 173.6 119.032 169.119 113.504 169.119C107.976 169.119 103.495 173.6 103.495 179.128C103.495 184.656 107.976 189.137 113.504 189.137Z" fill="#FFB6B6"/>
<path d="M96.1129 266.092C96.3934 265.589 96.5603 265.031 96.6017 264.457C96.6431 263.882 96.5581 263.306 96.3527 262.768C96.1473 262.23 95.8264 261.744 95.4126 261.343C94.9989 260.943 94.5024 260.638 93.9581 260.45L93.9344 246.453L87.8691 250.468L88.8215 263.144C88.5666 264.079 88.6636 265.075 89.0941 265.944C89.5247 266.813 90.2589 267.493 91.1577 267.856C92.0565 268.22 93.0573 268.241 93.9706 267.916C94.8838 267.591 95.6461 266.942 96.1129 266.092Z" fill="#FFB6B6"/>
<path d="M95.5521 204.161L92.8424 201.549L90.8519 202.986C90.8519 202.986 88.8934 205.336 87.3267 212.386C85.76 219.436 87.3267 258.213 87.3267 258.213L95.9438 257.038L94.7687 236.67L98.2939 219.436L95.5521 204.161Z" fill="#CCCCCC"/>
<path d="M155.21 258.159C155.334 257.597 155.334 257.014 155.21 256.452C155.085 255.89 154.838 255.362 154.487 254.905C154.136 254.449 153.69 254.075 153.178 253.81C152.667 253.544 152.104 253.394 151.529 253.37L147.497 239.967L142.836 245.55L147.379 257.423C147.403 258.392 147.781 259.319 148.443 260.027C149.104 260.736 150.002 261.178 150.967 261.269C151.933 261.359 152.898 261.093 153.679 260.52C154.461 259.947 155.006 259.107 155.21 258.159Z" fill="#FFB6B6"/>
<path d="M129.055 203.065L130.862 199.764L133.191 200.541C133.191 200.541 135.761 202.2 139.36 208.461C141.025 211.357 144.623 229.929 144.623 229.929L153.035 252.201L144.459 253.651L137.304 235.296L129.01 217.731L129.055 203.065Z" fill="#CCCCCC"/>
<path d="M91.5508 202.186L100.68 197.826L106.878 192.077L118.18 191.992L121.826 196.732L131.451 200.001L129.847 233.191L130.941 235.743C130.941 235.743 130.179 236.432 129.831 236.817C129.483 237.201 130.312 240.425 130.312 240.425L130.779 243.931L129.483 244.858L131.169 246.849L131.587 249.988C131.587 249.988 102.159 242.674 96.5987 254.791C96.3049 255.431 97.0283 249.174 97.0283 249.174L97.7517 244.594L97.0341 240.483L95.9403 239.389L97.7747 237.555L96.5986 228.85L91.5508 202.186Z" fill="#CCCCCC"/>
<path d="M110.944 188.648C110.901 188.553 110.859 188.458 110.816 188.363C110.832 188.364 110.849 188.366 110.865 188.367L110.944 188.648Z" fill="#2F2E41"/>
<path d="M103.217 169.575C103.692 169.127 104.31 168.86 104.962 168.82C105.609 168.841 106.266 169.426 106.131 170.059C107.32 167.954 109.212 166.336 111.476 165.487C113.74 164.638 116.23 164.614 118.509 165.418C120.118 165.986 121.695 167.121 122.065 168.786C122.101 169.223 122.231 169.648 122.447 170.03C122.634 170.234 122.877 170.379 123.145 170.447C123.414 170.515 123.696 170.503 123.958 170.412L123.974 170.408C124.063 170.377 124.16 170.374 124.251 170.399C124.342 170.424 124.424 170.476 124.486 170.548C124.547 170.62 124.586 170.708 124.596 170.802C124.607 170.896 124.589 170.991 124.545 171.075L124.09 171.924C124.664 172.052 125.26 172.039 125.828 171.887C125.922 171.862 126.022 171.867 126.113 171.902C126.204 171.936 126.283 171.997 126.338 172.078C126.393 172.158 126.421 172.254 126.42 172.351C126.418 172.449 126.387 172.544 126.329 172.622C125.573 173.657 124.585 174.501 123.445 175.087C122.305 175.673 121.044 175.985 119.762 175.998C117.944 175.987 116.107 175.36 114.337 175.778C113.652 175.94 113.012 176.253 112.464 176.694C111.916 177.136 111.474 177.694 111.17 178.329C110.866 178.963 110.708 179.658 110.707 180.361C110.707 181.065 110.864 181.759 111.167 182.394C110.623 181.8 109.572 181.94 109.016 182.524C108.76 182.836 108.57 183.197 108.46 183.585C108.349 183.974 108.319 184.381 108.372 184.781C108.52 186.007 108.884 187.197 109.447 188.296C107.296 188.23 105.218 187.506 103.492 186.22C101.767 184.935 100.477 183.152 99.7979 181.11C99.1186 179.069 99.0821 176.868 99.6936 174.805C100.305 172.742 101.535 170.917 103.217 169.575Z" fill="#2F2E41"/>
<path d="M113.884 64.0339C127.627 64.0339 138.768 52.8929 138.768 39.1498C138.768 25.4066 127.627 14.2656 113.884 14.2656C100.141 14.2656 88.9995 25.4066 88.9995 39.1498C88.9995 52.8929 100.141 64.0339 113.884 64.0339Z" fill="#FF6584"/>
<path d="M158.79 20.0581C146.73 18.428 132.962 24.9465 129.836 36.7078C129.048 34.6167 127.616 32.83 125.747 31.6061C123.877 30.3822 121.667 29.7843 119.435 29.8988C117.203 30.0133 115.066 30.8343 113.331 32.2432C111.597 33.6521 110.355 35.5759 109.786 37.7367L111.166 38.7256C137.01 44.3144 163.763 44.1934 189.556 38.3712C181.167 29.5549 170.85 21.6882 158.79 20.0581Z" fill="#F0F0F0"/>
<path d="M107.07 53.2378C95.0101 51.6077 81.2417 58.1262 78.116 69.8875C77.3282 67.7963 75.8961 66.0097 74.0265 64.7858C72.1569 63.5618 69.9466 62.9639 67.7149 63.0785C65.4832 63.193 63.3457 64.014 61.6112 65.4229C59.8767 66.8318 58.635 68.7556 58.0654 70.9164L59.4461 71.9053C85.2902 77.4941 112.043 77.3731 137.835 71.5508C129.447 62.7346 119.13 54.8679 107.07 53.2378Z" fill="#F0F0F0"/>
<path d="M151.926 256.906C152.393 256.5 152.943 256.2 153.538 256.03C154.133 255.859 154.759 255.82 155.37 255.917C155.982 256.014 156.564 256.244 157.077 256.59C157.59 256.937 158.021 257.392 158.339 257.923L192.201 253.416L189.322 260.687L156.644 263.924C155.716 264.399 154.647 264.518 153.638 264.258C152.628 263.997 151.75 263.375 151.168 262.51C150.587 261.646 150.343 260.597 150.482 259.564C150.622 258.531 151.136 257.586 151.926 256.906Z" fill="#FFB6B6"/>
<path d="M221.138 246.412C221.138 246.412 225.122 250.08 221.398 255.036C217.674 259.992 198.705 263.658 195.666 264.34C192.626 265.022 175.916 263.279 175.916 263.279L174.046 254.947L221.138 246.412Z" fill="#3F3D56"/>
<path d="M270.334 311.185C272.455 294.125 283.028 277.316 299.299 271.764C292.882 289.324 292.883 308.587 299.303 326.146C301.803 332.909 305.288 340.171 302.936 346.986C301.473 351.227 297.893 354.472 293.892 356.501C289.891 358.53 285.45 359.497 281.065 360.445L280.202 361.158C273.24 345.439 268.212 328.246 270.334 311.185Z" fill="#E6E6E6"/>
<path d="M299.46 272.087C289.985 282.703 284.096 296.036 282.629 310.19C282.259 313.231 282.371 316.312 282.961 319.319C283.63 322.229 285.066 324.907 287.12 327.074C288.994 329.134 291.15 331.024 292.491 333.503C293.159 334.782 293.549 336.188 293.635 337.629C293.721 339.069 293.502 340.512 292.992 341.861C291.807 345.258 289.474 348.026 287.097 350.654C284.458 353.572 281.672 356.561 280.55 360.429C280.414 360.898 279.695 360.659 279.83 360.191C281.782 353.461 288.315 349.639 291.43 343.577C292.884 340.748 293.494 337.465 292.132 334.479C290.94 331.868 288.718 329.918 286.802 327.849C284.768 325.764 283.274 323.212 282.453 320.417C281.712 317.45 281.482 314.378 281.772 311.334C282.315 304.47 283.934 297.735 286.569 291.374C289.536 284.097 293.727 277.382 298.959 271.518C299.283 271.156 299.782 271.726 299.46 272.087Z" fill="white"/>
<path d="M282.833 305.604C280.492 305.036 278.429 303.653 277.013 301.704C275.596 299.755 274.919 297.366 275.101 294.964C275.14 294.478 275.897 294.515 275.858 295.001C275.684 297.238 276.316 299.464 277.638 301.276C278.961 303.088 280.888 304.368 283.071 304.884C283.545 304.997 283.305 305.716 282.833 305.604Z" fill="white"/>
<path d="M286.032 326.156C290.261 323.631 293.382 319.605 294.774 314.881C294.912 314.413 295.631 314.651 295.494 315.118C294.036 320.032 290.779 324.215 286.373 326.833C285.952 327.082 285.614 326.404 286.032 326.156Z" fill="white"/>
<path d="M290.24 284.815C291.1 285.224 292.048 285.413 292.999 285.364C293.95 285.316 294.874 285.032 295.688 284.539C296.105 284.284 296.443 284.963 296.029 285.215C295.127 285.757 294.106 286.069 293.055 286.124C292.005 286.18 290.956 285.978 290.002 285.535C289.909 285.5 289.832 285.432 289.787 285.343C289.742 285.254 289.733 285.152 289.761 285.056C289.793 284.961 289.861 284.882 289.951 284.837C290.04 284.792 290.144 284.784 290.24 284.815Z" fill="white"/>
<path d="M348.894 302.236C348.638 302.402 348.382 302.568 348.126 302.741C344.699 304.994 341.462 307.522 338.444 310.3C338.208 310.511 337.971 310.728 337.741 310.946C330.543 317.715 324.665 325.762 320.404 334.677C318.712 338.226 317.293 341.899 316.158 345.664C314.591 350.863 313.306 356.624 310.204 360.877C309.886 361.324 309.54 361.751 309.168 362.156H281.139C281.076 362.124 281.012 362.098 280.948 362.066L279.829 362.118C279.874 361.919 279.924 361.715 279.969 361.517C279.995 361.401 280.027 361.286 280.053 361.171C280.072 361.095 280.091 361.018 280.104 360.947C280.11 360.922 280.117 360.896 280.123 360.877C280.136 360.807 280.155 360.743 280.168 360.679C280.449 359.534 280.739 358.389 281.037 357.245C281.037 357.238 281.037 357.238 281.044 357.232C283.34 348.516 286.383 339.915 290.636 332.049C290.764 331.812 290.892 331.569 291.032 331.333C292.969 327.798 295.191 324.427 297.677 321.254C299.044 319.521 300.497 317.859 302.032 316.273C306.005 312.182 310.598 308.742 315.64 306.079C325.693 300.771 337.331 298.738 348.075 301.98C348.35 302.063 348.619 302.146 348.894 302.236Z" fill="#E6E6E6"/>
<path d="M348.83 302.592C334.873 305.364 322.144 312.463 312.451 322.882C310.325 325.088 308.559 327.615 307.22 330.37C306.002 333.097 305.536 336.1 305.871 339.067C306.127 341.84 306.711 344.647 306.289 347.434C306.052 348.857 305.517 350.214 304.718 351.416C303.92 352.619 302.876 353.638 301.656 354.409C298.666 356.408 295.136 357.213 291.656 357.88C287.793 358.621 283.768 359.33 280.543 361.743C280.153 362.035 279.722 361.412 280.112 361.12C285.722 356.921 293.24 357.803 299.377 354.839C302.241 353.455 304.705 351.201 305.414 347.996C306.035 345.194 305.435 342.299 305.151 339.494C304.782 336.604 305.126 333.668 306.153 330.941C307.348 328.127 309.013 325.536 311.077 323.279C315.643 318.126 320.991 313.722 326.925 310.23C333.676 306.207 341.064 303.368 348.772 301.836C349.249 301.742 349.304 302.498 348.83 302.592Z" fill="white"/>
<path d="M315.375 319.343C313.848 317.479 313.033 315.134 313.075 312.725C313.118 310.316 314.016 308 315.608 306.192C315.931 305.827 316.513 306.312 316.189 306.678C314.704 308.359 313.868 310.516 313.833 312.759C313.797 315.002 314.565 317.184 315.998 318.911C316.309 319.287 315.684 319.716 315.375 319.343Z" fill="white"/>
<path d="M305.556 337.678C310.452 338.208 315.369 336.873 319.325 333.939C319.716 333.648 320.147 334.271 319.756 334.562C315.634 337.607 310.515 338.986 305.42 338.423C304.935 338.369 305.073 337.624 305.556 337.678Z" fill="white"/>
<path d="M333.805 307.203C334.246 308.048 334.889 308.769 335.678 309.303C336.466 309.837 337.375 310.167 338.322 310.263C338.808 310.311 338.67 311.056 338.187 311.009C337.141 310.898 336.138 310.532 335.265 309.944C334.393 309.356 333.678 308.563 333.182 307.635C333.128 307.551 333.108 307.45 333.126 307.352C333.144 307.254 333.198 307.167 333.278 307.108C333.361 307.051 333.463 307.029 333.561 307.047C333.66 307.065 333.748 307.121 333.805 307.203Z" fill="white"/>
<path d="M388.625 298.017C385.039 301.171 380.451 302.951 375.676 303.04C370.901 303.13 366.249 301.523 362.547 298.505L362.469 298.441L362.466 298.341C362.422 296.669 362.162 295.01 361.691 293.406C361.667 294.561 361.499 295.708 361.189 296.822L361.089 297.196L360.819 296.918C360.586 296.678 360.361 296.434 360.149 296.193C358.903 294.779 357.86 293.2 357.049 291.499C353.37 283.77 347.832 276.866 340.588 270.98C339.346 269.971 338.191 268.859 337.134 267.657C332.669 262.578 330.159 256.075 330.051 249.313C329.944 242.551 332.248 235.971 336.549 230.753C340.85 225.534 346.869 222.017 353.527 220.832C360.185 219.646 367.048 220.869 372.887 224.282L373.064 224.386L372.972 224.57C372.296 225.974 371.403 227.262 370.326 228.387C371.807 227.587 373.177 226.597 374.401 225.443L374.531 225.321L374.677 225.422C376.595 226.749 378.344 228.305 379.884 230.056L380.05 230.247C381.225 231.591 382.671 232.673 384.292 233.421C385.914 234.17 387.675 234.568 389.461 234.59C392.375 234.639 395.243 235.319 397.869 236.582C400.495 237.845 402.816 239.663 404.673 241.909C406.529 244.155 407.877 246.777 408.624 249.594C409.37 252.411 409.498 255.356 408.997 258.227L408.974 258.36L408.845 258.399C406.115 259.23 403.846 259.516 401.794 259.279C403.786 260.147 405.908 260.678 408.074 260.852L408.354 260.874L408.265 261.141C407.137 264.529 405.129 267.556 402.446 269.914L402.37 269.981C402.342 270.005 402.315 270.028 402.288 270.052C400.289 271.773 398.654 273.876 397.479 276.238C396.304 278.599 395.612 281.172 395.444 283.804C395.311 286.508 394.639 289.158 393.468 291.598C392.298 294.039 390.651 296.221 388.625 298.017Z" fill="#22C55E"/>
<path opacity="0.15" d="M392.299 291.531C392.262 292.258 392.187 292.982 392.072 293.7C394.038 290.681 395.17 287.194 395.351 283.595C395.378 283.044 395.435 282.496 395.513 281.949C393.603 284.797 392.492 288.107 392.299 291.531Z" fill="black"/>
<path opacity="0.15" d="M398.648 267.006C400.251 267.7 401.939 268.178 403.667 268.425C404.333 267.723 404.948 266.973 405.506 266.182C402.864 266.967 400.651 267.237 398.648 267.006Z" fill="black"/>
<path opacity="0.15" d="M406.044 260.381C406.223 262.125 406.175 263.885 405.901 265.616C406.858 264.161 407.621 262.586 408.172 260.933L408.261 260.667L407.981 260.644C407.331 260.589 406.685 260.501 406.044 260.381Z" fill="black"/>
<path opacity="0.15" d="M404.177 241.229C402.32 239.122 400.043 237.425 397.494 236.246C394.944 235.067 392.176 234.432 389.368 234.382C387.582 234.36 385.821 233.961 384.199 233.213C382.577 232.465 381.132 231.383 379.956 230.039L379.79 229.848C378.25 228.097 376.502 226.541 374.584 225.214L374.437 225.113L374.308 225.235C373.083 226.389 371.713 227.379 370.232 228.179C371.309 227.054 372.202 225.765 372.879 224.362L372.971 224.178L372.793 224.074C368.922 221.808 364.571 220.49 360.094 220.227C355.617 219.963 351.141 220.762 347.031 222.558C342.922 224.354 339.295 227.096 336.447 230.56C333.599 234.024 331.61 238.113 330.643 242.492C332.505 239.22 334.999 236.35 337.979 234.049C340.959 231.747 344.366 230.06 348.003 229.085C351.639 228.11 355.433 227.867 359.165 228.369C362.896 228.871 366.491 230.108 369.741 232.009L369.919 232.114L369.826 232.298C369.15 233.701 368.257 234.989 367.18 236.115C368.661 235.315 370.031 234.325 371.256 233.17L371.385 233.048L371.531 233.149C373.449 234.476 375.198 236.033 376.738 237.784L376.904 237.974C378.079 239.319 379.525 240.4 381.147 241.149C382.768 241.897 384.53 242.295 386.315 242.317C390.985 242.396 395.483 244.092 399.041 247.117C402.6 250.141 405 254.306 405.831 258.902C406.818 258.725 407.793 258.487 408.751 258.191L408.881 258.152L408.904 258.018C409.428 255.045 409.275 251.991 408.457 249.084C407.638 246.178 406.176 243.493 404.177 241.229Z" fill="black"/>
<path d="M446.658 158.147C446.657 173.524 441.202 188.403 431.264 200.138C421.325 211.873 407.548 219.703 392.38 222.236L392.059 222.288L391.811 222.081C387.676 218.633 383.111 215.735 378.23 213.461C380.973 215.974 383.389 218.822 385.423 221.938L386.114 222.977L384.868 223.037C383.792 223.09 382.722 223.116 381.69 223.116C375.624 223.121 369.586 222.284 363.75 220.628C337.238 213.086 308.769 211.796 279.134 216.794C274.052 217.649 268.909 218.078 263.756 218.077C213.225 218.077 172.115 176.959 172.115 126.418C172.088 107.148 178.144 88.3616 189.42 72.7358C200.697 57.1099 216.618 45.4424 234.915 39.3963L235.545 39.1877L235.794 39.8026C237.749 44.4216 238.965 49.3198 239.395 54.3171C240.61 49.0359 241.13 43.6187 240.943 38.2028L240.923 37.6309L241.479 37.4916C248.765 35.6756 256.247 34.758 263.756 34.7591L264.569 34.7625C270.319 34.7796 276.009 33.5845 281.267 31.2552C286.525 28.9259 291.233 25.5147 295.084 21.2439C301.398 14.3035 309.141 8.81355 317.78 5.15157C326.42 1.48959 335.749 -0.257453 345.128 0.0306268C354.507 0.318706 363.712 2.63507 372.11 6.82037C380.508 11.0057 387.899 16.9605 393.776 24.2753L394.05 24.614L393.869 25.011C390.073 33.3773 385.938 39.4723 381.002 43.9295C387.336 40.958 393.134 36.9573 398.161 32.0901L398.809 31.4608L399.265 32.2421C405.057 42.1756 408.107 53.4693 408.102 64.9682L408.101 65.2959C408.101 65.4116 408.101 65.5282 408.101 65.6439C408.101 83.2338 414.903 99.9055 426.794 111.436C433.048 117.507 438.027 124.766 441.438 132.788C444.849 140.809 446.624 149.43 446.658 158.147Z" fill="#22C55E"/>
<g opacity="0.15">
<path d="M367.231 4.61133C364.991 8.32884 362.235 11.7098 359.045 14.6532C363.613 12.509 367.906 9.82525 371.835 6.65948C370.328 5.91707 368.793 5.23435 367.231 4.61133Z" fill="black"/>
<path d="M404.837 82.1586C408.371 85.5875 411.505 89.4054 414.179 93.5393C410.154 84.791 408.08 75.2719 408.101 65.6421C408.101 65.5264 408.101 65.4098 408.102 65.2941L408.102 64.9664C408.107 53.4675 405.057 42.1738 399.265 32.2403L398.81 31.459L398.161 32.0882C394.579 35.5504 390.602 38.5789 386.312 41.1111C387.417 56.9285 394.021 71.6706 404.837 82.1586Z" fill="black"/>
<path d="M386.146 35.6908L386.145 36.0186C386.144 36.1343 386.144 36.2508 386.144 36.3666C386.144 37.0043 386.156 37.6404 386.174 38.2755C389.234 34.1594 391.815 29.7087 393.87 25.0092L394.05 24.6122L393.777 24.2735C390.349 20.0083 386.401 16.1895 382.023 12.9062C384.749 20.1935 386.145 27.9106 386.146 35.6908Z" fill="black"/>
<path d="M426.794 111.436C423.668 108.395 420.891 105.016 418.513 101.361C422.771 110.433 424.871 120.367 424.648 130.386C424.424 140.405 421.884 150.236 417.226 159.108C412.567 167.981 405.918 175.654 397.798 181.527C389.678 187.401 380.309 191.314 370.424 192.96L370.103 193.012L369.854 192.805C365.719 189.357 361.154 186.459 356.274 184.185C359.016 186.699 361.433 189.546 363.466 192.662L364.158 193.702L362.911 193.761C361.835 193.814 360.766 193.84 359.734 193.84C353.667 193.845 347.629 193.008 341.793 191.353C315.282 183.81 286.813 182.52 257.178 187.519C252.096 188.373 246.952 188.802 241.799 188.802C219.339 188.819 197.661 180.552 180.915 165.583C195.625 196.586 227.227 218.077 263.756 218.077C268.909 218.077 274.053 217.648 279.134 216.794C308.77 211.795 337.239 213.085 363.75 220.628C369.586 222.284 375.624 223.121 381.69 223.116C382.722 223.116 383.792 223.089 384.868 223.037L386.115 222.977L385.423 221.937C383.389 218.822 380.973 215.974 378.231 213.46C383.111 215.735 387.676 218.632 391.811 222.081L392.059 222.288L392.38 222.235C404.25 220.261 415.338 215.027 424.406 207.117C433.475 199.207 440.167 188.934 443.736 177.442C447.305 165.95 447.611 153.693 444.62 142.038C441.628 130.382 435.456 119.788 426.794 111.436Z" fill="black"/>
</g>
<path d="M121.036 141.705C117.539 137.937 115.725 132.283 117.585 127.49C120.37 132.338 124.78 136.044 130.034 137.952C132.063 138.681 134.396 139.281 135.504 141.13C136.144 142.327 136.301 143.723 135.942 145.031C135.58 146.325 135.054 147.566 134.377 148.726L134.374 149.061C129.436 147.63 124.533 145.473 121.036 141.705Z" fill="#22C55E"/>
<path d="M294.737 251C291.24 247.232 289.427 241.578 291.286 236.785C294.071 241.632 298.481 245.338 303.736 247.247C305.765 247.976 308.097 248.576 309.205 250.425C309.845 251.621 310.002 253.018 309.643 254.326C309.281 255.62 308.755 256.861 308.078 258.021L308.075 258.356C303.137 256.925 298.234 254.768 294.737 251Z" fill="#22C55E"/>
<path d="M376.644 321.542C374.201 317.019 373.86 311.091 376.859 306.916C378.343 312.306 381.685 316.998 386.295 320.161C388.077 321.374 390.186 322.538 390.795 324.606C391.116 325.924 390.918 327.315 390.243 328.492C389.569 329.654 388.749 330.725 387.803 331.678L387.717 332.002C383.294 329.381 379.087 326.066 376.644 321.542Z" fill="#22C55E"/>
<path d="M435.683 234.203C433.24 229.679 432.899 223.751 435.899 219.576C437.382 224.966 440.724 229.658 445.334 232.821C447.116 234.034 449.225 235.198 449.834 237.266C450.155 238.584 449.957 239.976 449.282 241.152C448.608 242.314 447.788 243.385 446.842 244.338L446.756 244.662C442.333 242.041 438.126 238.726 435.683 234.203Z" fill="#22C55E"/>
<path d="M49.7347 267.871C47.2917 263.347 46.9507 257.419 49.9503 253.244C51.4339 258.634 54.7761 263.326 59.3858 266.489C61.1679 267.702 63.2765 268.866 63.8862 270.934C64.2069 272.252 64.0093 273.644 63.3341 274.82C62.6601 275.982 61.8401 277.053 60.894 278.006L60.8077 278.33C56.3851 275.709 52.1777 272.394 49.7347 267.871Z" fill="#22C55E"/>
<path d="M419.851 362.703H0.580749C0.426959 362.703 0.279616 362.641 0.171028 362.532C0.0624394 362.423 0.00146484 362.276 0.00146484 362.122C0.00146484 361.968 0.0624394 361.821 0.171028 361.712C0.279616 361.603 0.426959 361.541 0.580749 361.541H419.851C420.005 361.541 420.152 361.603 420.261 361.712C420.37 361.821 420.431 361.968 420.431 362.122C420.431 362.276 420.37 362.423 420.261 362.532C420.152 362.641 420.005 362.703 419.851 362.703Z" fill="#CCCCCC"/>
</g>
<defs>
<clipPath id="clip0_1753_3074">
<rect width="450" height="362.703" fill="white"/>
</clipPath>
</defs>
</svg>
