<svg width="375" height="50" viewBox="0 0 375 50" fill="none" xmlns="http://www.w3.org/2000/svg">
<path d="M42.5059 34.0328C41.055 35.4837 38.7023 35.4837 37.2514 34.0328L30.8457 27.6269C29.3946 26.176 29.3946 23.8236 30.8457 22.3724L37.2514 15.9667C38.7023 14.5158 41.055 14.5158 42.5059 15.9667L48.9118 22.3724C50.3627 23.8236 50.3627 26.176 48.9118 27.6269L42.5059 34.0328ZM12.7485 34.0328C11.2976 35.4837 8.94496 35.4837 7.49381 34.0328L1.08836 27.6269C-0.362788 26.176 -0.362788 23.8236 1.08836 22.3724L7.49407 15.9667C8.94496 14.5158 11.2976 14.5158 12.7485 15.9667L19.1542 22.3724C20.6054 23.8236 20.6054 26.176 19.1542 27.6269L12.7485 34.0328ZM27.6273 48.9114C26.1762 50.3625 23.8238 50.3625 22.3726 48.9114L15.9669 42.5057C14.516 41.0548 14.516 38.7021 15.9669 37.2512L22.3729 30.8455C23.8238 29.3944 26.1762 29.3944 27.6273 30.8455L34.033 37.2512C35.4839 38.7021 35.4839 41.0548 34.033 42.5057L27.6273 48.9114ZM27.6273 19.154C26.1762 20.6052 23.8238 20.6052 22.3726 19.154L15.9669 12.7483C14.516 11.2972 14.516 8.94476 15.9669 7.49361L22.3729 1.08816C23.8238 -0.362721 26.1762 -0.362721 27.6273 1.08816L34.033 7.49414C35.4839 8.94502 35.4839 11.2974 34.033 12.7486L27.6273 19.154Z" fill="url(#paint0_linear_1705_2427)"/>
<path d="M121.094 49L117.781 38.125H101.125L97.8125 49H87.375L103.5 3.125H115.344L131.531 49H121.094ZM115.469 30L112.156 19.375C111.948 18.6667 111.667 17.7604 111.312 16.6562C110.979 15.5312 110.635 14.3958 110.281 13.25C109.948 12.0833 109.677 11.0729 109.469 10.2188C109.26 11.0729 108.969 12.1354 108.594 13.4062C108.24 14.6562 107.896 15.8438 107.562 16.9688C107.229 18.0938 106.99 18.8958 106.844 19.375L103.562 30H115.469Z" fill="black"/>
<path d="M137.312 49V3.3125H147V49H137.312Z" fill="black"/>
<path d="M184.656 49H175.125V3.3125H201.312V11.25H184.656V23.0312H200.156V30.9375H184.656V49Z" fill="black"/>
<path d="M241.562 14.0625V49H234.25L232.969 44.5312H232.469C231.719 45.7188 230.781 46.6875 229.656 47.4375C228.531 48.1875 227.292 48.7396 225.938 49.0938C224.583 49.4479 223.177 49.625 221.719 49.625C219.219 49.625 217.042 49.1875 215.188 48.3125C213.333 47.4167 211.885 46.0312 210.844 44.1562C209.823 42.2812 209.312 39.8438 209.312 36.8438V14.0625H218.844V34.4688C218.844 36.9688 219.292 38.8542 220.188 40.125C221.083 41.3958 222.51 42.0312 224.469 42.0312C226.406 42.0312 227.927 41.5938 229.031 40.7188C230.135 39.8229 230.906 38.5208 231.344 36.8125C231.802 35.0833 232.031 32.9792 232.031 30.5V14.0625H241.562Z" fill="black"/>
<path d="M275.938 38.625C275.938 41 275.375 43.0104 274.25 44.6562C273.146 46.2812 271.49 47.5208 269.281 48.375C267.073 49.2083 264.323 49.625 261.031 49.625C258.594 49.625 256.5 49.4688 254.75 49.1562C253.021 48.8438 251.271 48.3229 249.5 47.5938V39.7188C251.396 40.5729 253.427 41.2812 255.594 41.8438C257.781 42.3854 259.698 42.6562 261.344 42.6562C263.198 42.6562 264.521 42.3854 265.312 41.8438C266.125 41.2812 266.531 40.5521 266.531 39.6562C266.531 39.0729 266.365 38.5521 266.031 38.0938C265.719 37.6146 265.031 37.0833 263.969 36.5C262.906 35.8958 261.24 35.1146 258.969 34.1562C256.781 33.2396 254.979 32.3125 253.562 31.375C252.167 30.4375 251.125 29.3333 250.438 28.0625C249.771 26.7708 249.438 25.1354 249.438 23.1562C249.438 19.9271 250.688 17.5 253.188 15.875C255.708 14.2292 259.073 13.4062 263.281 13.4062C265.448 13.4062 267.51 13.625 269.469 14.0625C271.448 14.5 273.479 15.1979 275.562 16.1562L272.688 23.0312C270.958 22.2812 269.323 21.6667 267.781 21.1875C266.26 20.7083 264.708 20.4688 263.125 20.4688C261.729 20.4688 260.677 20.6562 259.969 21.0312C259.26 21.4062 258.906 21.9792 258.906 22.75C258.906 23.3125 259.083 23.8125 259.438 24.25C259.812 24.6875 260.521 25.1771 261.562 25.7188C262.625 26.2396 264.177 26.9167 266.219 27.75C268.198 28.5625 269.917 29.4167 271.375 30.3125C272.833 31.1875 273.958 32.2812 274.75 33.5938C275.542 34.8854 275.938 36.5625 275.938 38.625Z" fill="black"/>
<path d="M292.906 14.0625V49H283.375V14.0625H292.906ZM288.156 0.375C289.573 0.375 290.792 0.708333 291.812 1.375C292.833 2.02083 293.344 3.23958 293.344 5.03125C293.344 6.80208 292.833 8.03125 291.812 8.71875C290.792 9.38542 289.573 9.71875 288.156 9.71875C286.719 9.71875 285.49 9.38542 284.469 8.71875C283.469 8.03125 282.969 6.80208 282.969 5.03125C282.969 3.23958 283.469 2.02083 284.469 1.375C285.49 0.708333 286.719 0.375 288.156 0.375Z" fill="black"/>
<path d="M334.688 31.4688C334.688 34.3854 334.292 36.9688 333.5 39.2188C332.729 41.4688 331.594 43.375 330.094 44.9375C328.615 46.4792 326.823 47.6458 324.719 48.4375C322.635 49.2292 320.281 49.625 317.656 49.625C315.198 49.625 312.938 49.2292 310.875 48.4375C308.833 47.6458 307.052 46.4792 305.531 44.9375C304.031 43.375 302.865 41.4688 302.031 39.2188C301.219 36.9688 300.812 34.3854 300.812 31.4688C300.812 27.5938 301.5 24.3125 302.875 21.625C304.25 18.9375 306.208 16.8958 308.75 15.5C311.292 14.1042 314.323 13.4062 317.844 13.4062C321.115 13.4062 324.01 14.1042 326.531 15.5C329.073 16.8958 331.062 18.9375 332.5 21.625C333.958 24.3125 334.688 27.5938 334.688 31.4688ZM310.531 31.4688C310.531 33.7604 310.781 35.6875 311.281 37.25C311.781 38.8125 312.562 39.9896 313.625 40.7812C314.688 41.5729 316.073 41.9688 317.781 41.9688C319.469 41.9688 320.833 41.5729 321.875 40.7812C322.938 39.9896 323.708 38.8125 324.188 37.25C324.688 35.6875 324.938 33.7604 324.938 31.4688C324.938 29.1562 324.688 27.2396 324.188 25.7188C323.708 24.1771 322.938 23.0208 321.875 22.25C320.812 21.4792 319.427 21.0938 317.719 21.0938C315.198 21.0938 313.365 21.9583 312.219 23.6875C311.094 25.4167 310.531 28.0104 310.531 31.4688Z" fill="black"/>
<path d="M362.406 13.4062C366.135 13.4062 369.135 14.4271 371.406 16.4688C373.677 18.4896 374.812 21.7396 374.812 26.2188V49H365.281V28.5938C365.281 26.0938 364.823 24.2083 363.906 22.9375C363.01 21.6667 361.594 21.0312 359.656 21.0312C356.74 21.0312 354.75 22.0208 353.688 24C352.625 25.9792 352.094 28.8333 352.094 32.5625V49H342.562V14.0625H349.844L351.125 18.5312H351.656C352.406 17.3229 353.333 16.3438 354.438 15.5938C355.562 14.8438 356.802 14.2917 358.156 13.9375C359.531 13.5833 360.948 13.4062 362.406 13.4062Z" fill="black"/>
<defs>
<linearGradient id="paint0_linear_1705_2427" x1="0" y1="0" x2="374.812" y2="0" gradientUnits="userSpaceOnUse">
<stop/>
<stop offset="0.48"/>
<stop offset="1"/>
</linearGradient>
</defs>
</svg>
